<svg width="20" height="16" viewBox="0 0 20 16" fill="none" xmlns="http://www.w3.org/2000/svg">
<path d="M2 16C1.45 16 0.979167 15.8042 0.5875 15.4125C0.195833 15.0208 0 14.55 0 14V2C0 1.45 0.195833 0.979167 0.5875 0.5875C0.979167 0.195833 1.45 0 2 0H18C18.55 0 19.0208 0.195833 19.4125 0.5875C19.8042 0.979167 20 1.45 20 2V14C20 14.55 19.8042 15.0208 19.4125 15.4125C19.0208 15.8042 18.55 16 18 16H2ZM2 14H18V2H2V14ZM9 13H11L11.3 11.5C11.5 11.4167 11.6875 11.3292 11.8625 11.2375C12.0375 11.1458 12.2167 11.0333 12.4 10.9L13.85 11.35L14.85 9.65L13.7 8.65C13.7333 8.43333 13.75 8.21667 13.75 8C13.75 7.78333 13.7333 7.56667 13.7 7.35L14.85 6.35L13.85 4.65L12.4 5.1C12.2167 4.96667 12.0375 4.85417 11.8625 4.7625C11.6875 4.67083 11.5 4.58333 11.3 4.5L11 3H9L8.7 4.5C8.5 4.58333 8.3125 4.67083 8.1375 4.7625C7.9625 4.85417 7.78333 4.96667 7.6 5.1L6.15 4.65L5.15 6.35L6.3 7.35C6.26667 7.56667 6.25 7.78333 6.25 8C6.25 8.21667 6.26667 8.43333 6.3 8.65L5.15 9.65L6.15 11.35L7.6 10.9C7.78333 11.0333 7.9625 11.1458 8.1375 11.2375C8.3125 11.3292 8.5 11.4167 8.7 11.5L9 13ZM10 10C9.45 10 8.97917 9.80417 8.5875 9.4125C8.19583 9.02083 8 8.55 8 8C8 7.45 8.19583 6.97917 8.5875 6.5875C8.97917 6.19583 9.45 6 10 6C10.55 6 11.0208 6.19583 11.4125 6.5875C11.8042 6.97917 12 7.45 12 8C12 8.55 11.8042 9.02083 11.4125 9.4125C11.0208 9.80417 10.55 10 10 10Z" fill="#71839B"/>
</svg>
