<svg width="18" height="18" viewBox="0 0 18 18" fill="none" xmlns="http://www.w3.org/2000/svg">
<path d="M9.49175 9.83374L7.57508 11.7421C7.49697 11.8195 7.43498 11.9117 7.39267 12.0133C7.35037 12.1148 7.32858 12.2237 7.32858 12.3337C7.32858 12.4438 7.35037 12.5527 7.39267 12.6542C7.43498 12.7558 7.49697 12.8479 7.57508 12.9254C7.65255 13.0035 7.74472 13.0655 7.84627 13.1078C7.94782 13.1501 8.05674 13.1719 8.16675 13.1719C8.27676 13.1719 8.38568 13.1501 8.48723 13.1078C8.58878 13.0655 8.68095 13.0035 8.75842 12.9254L12.0917 9.59208C12.1676 9.51282 12.2271 9.41937 12.2667 9.31708C12.3501 9.11419 12.3501 8.88663 12.2667 8.68374C12.2271 8.58145 12.1676 8.488 12.0917 8.40874L8.75842 5.07541C8.68072 4.99771 8.58847 4.93608 8.48696 4.89403C8.38544 4.85198 8.27663 4.83033 8.16675 4.83033C8.05687 4.83033 7.94806 4.85198 7.84654 4.89403C7.74502 4.93608 7.65278 4.99771 7.57508 5.07541C7.49738 5.15311 7.43575 5.24535 7.3937 5.34687C7.35165 5.44839 7.33001 5.55719 7.33001 5.66708C7.33001 5.77696 7.35165 5.88576 7.3937 5.98728C7.43575 6.0888 7.49738 6.18104 7.57508 6.25874L9.49175 8.16708H1.50008C1.27907 8.16708 1.06711 8.25487 0.910826 8.41115C0.754545 8.56743 0.666748 8.7794 0.666748 9.00041C0.666748 9.22142 0.754545 9.43338 0.910826 9.58966C1.06711 9.74594 1.27907 9.83374 1.50008 9.83374H9.49175ZM9.00008 0.667075C7.44266 0.660122 5.91445 1.08975 4.5888 1.90723C3.26316 2.72472 2.19313 3.89733 1.50008 5.29208C1.40063 5.49099 1.38426 5.72126 1.45459 5.93224C1.52491 6.14322 1.67617 6.31762 1.87508 6.41707C2.07399 6.51653 2.30427 6.5329 2.51525 6.46257C2.72622 6.39224 2.90063 6.24099 3.00008 6.04207C3.52691 4.97818 4.32828 4.07426 5.32137 3.42373C6.31447 2.77321 7.46327 2.39967 8.64904 2.34174C9.83482 2.2838 11.0146 2.54356 12.0663 3.09417C13.1181 3.64478 14.0038 4.46627 14.6318 5.47374C15.2599 6.48121 15.6075 7.63811 15.6387 8.8249C15.67 10.0117 15.3838 11.1853 14.8097 12.2244C14.2356 13.2636 13.3944 14.1305 12.373 14.7358C11.3517 15.341 10.1873 15.6625 9.00008 15.6671C7.75748 15.6725 6.53854 15.3274 5.48316 14.6714C4.42777 14.0155 3.57871 13.0753 3.03341 11.9587C2.93396 11.7598 2.75956 11.6086 2.54858 11.5382C2.3376 11.4679 2.10733 11.4843 1.90841 11.5837C1.7095 11.6832 1.55825 11.8576 1.48792 12.0686C1.41759 12.2796 1.43396 12.5098 1.53341 12.7087C2.1941 14.0383 3.19802 15.1673 4.44131 15.9788C5.6846 16.7903 7.12212 17.2549 8.60518 17.3246C10.0882 17.3942 11.563 17.0664 12.8769 16.375C14.1908 15.6836 15.2961 14.6537 16.0785 13.3919C16.8609 12.1301 17.292 10.6822 17.3272 9.19791C17.3624 7.71363 17.0004 6.2469 16.2786 4.94943C15.5569 3.65197 14.5016 2.57088 13.222 1.818C11.9423 1.06511 10.4848 0.667772 9.00008 0.667075V0.667075Z" fill="#71839B"/>
</svg>
