<svg width="16" height="20" viewBox="0 0 16 20" fill="none" xmlns="http://www.w3.org/2000/svg">
<path d="M5.5 0C6.88333 0 8.18333 0.2625 9.4 0.7875C10.6167 1.3125 11.675 2.025 12.575 2.925C13.475 3.825 14.1875 4.88333 14.7125 6.1C15.2375 7.31667 15.5 8.61667 15.5 10C15.5 11.3833 15.2375 12.6833 14.7125 13.9C14.1875 15.1167 13.475 16.175 12.575 17.075C11.675 17.975 10.6167 18.6875 9.4 19.2125C8.18333 19.7375 6.88333 20 5.5 20C4.61667 20 3.75417 19.8875 2.9125 19.6625C2.07083 19.4375 1.26667 19.1 0.5 18.65C2.05 17.75 3.27083 16.5333 4.1625 15C5.05417 13.4667 5.5 11.8 5.5 10C5.5 8.2 5.05417 6.53333 4.1625 5C3.27083 3.46667 2.05 2.25 0.5 1.35C1.26667 0.9 2.07083 0.5625 2.9125 0.3375C3.75417 0.1125 4.61667 0 5.5 0Z" fill="#71839B"/>
</svg>
