<svg width="22" height="20" viewBox="0 0 22 20" fill="none" xmlns="http://www.w3.org/2000/svg">
<path d="M8.24995 20L7.84995 16.8C7.63328 16.7167 7.42912 16.6167 7.23745 16.5C7.04578 16.3833 6.85828 16.2583 6.67495 16.125L3.69995 17.375L0.949951 12.625L3.52495 10.675C3.50828 10.5583 3.49995 10.4458 3.49995 10.3375V9.6625C3.49995 9.55417 3.50828 9.44167 3.52495 9.325L0.949951 7.375L3.69995 2.625L6.67495 3.875C6.85828 3.74167 7.04995 3.61667 7.24995 3.5C7.44995 3.38333 7.64995 3.28333 7.84995 3.2L8.24995 0H13.75L14.15 3.2C14.3666 3.28333 14.5708 3.38333 14.7625 3.5C14.9541 3.61667 15.1416 3.74167 15.325 3.875L18.3 2.625L21.05 7.375L19.2 8.775C18.8333 8.59167 18.4583 8.4375 18.075 8.3125C17.6916 8.1875 17.2833 8.1 16.85 8.05L18.425 6.85L17.45 5.15L14.975 6.2C14.6083 5.81667 14.2041 5.49583 13.7625 5.2375C13.3208 4.97917 12.8416 4.78333 12.325 4.65L12 2H10.025L9.67495 4.65C9.15829 4.78333 8.67912 4.97917 8.23745 5.2375C7.79578 5.49583 7.39162 5.80833 7.02495 6.175L4.54995 5.15L3.57495 6.85L5.72495 8.45C5.64162 8.7 5.58328 8.95 5.54995 9.2C5.51662 9.45 5.49995 9.71667 5.49995 10C5.49995 10.2667 5.51662 10.525 5.54995 10.775C5.58328 11.025 5.64162 11.275 5.72495 11.525L3.57495 13.15L4.54995 14.85L7.02495 13.8C7.30828 14.0833 7.61245 14.3375 7.93745 14.5625C8.26245 14.7875 8.61662 14.975 8.99995 15.125C9.01662 16.075 9.21245 16.9667 9.58745 17.8C9.96245 18.6333 10.4666 19.3667 11.1 20H8.24995ZM9.27495 13.025C9.37495 12.6917 9.49578 12.3708 9.63745 12.0625C9.77912 11.7542 9.94162 11.4583 10.125 11.175C9.94162 11.0417 9.79995 10.8708 9.69995 10.6625C9.59995 10.4542 9.54995 10.2333 9.54995 10C9.54995 9.58333 9.69578 9.22917 9.98745 8.9375C10.2791 8.64583 10.6333 8.5 11.05 8.5C11.2833 8.5 11.5083 8.55417 11.725 8.6625C11.9416 8.77083 12.1166 8.91667 12.25 9.1C12.5333 8.91667 12.825 8.75417 13.125 8.6125C13.425 8.47083 13.7416 8.35833 14.075 8.275C13.775 7.74167 13.3583 7.3125 12.825 6.9875C12.2916 6.6625 11.7 6.5 11.05 6.5C10.0666 6.5 9.23745 6.84167 8.56245 7.525C7.88745 8.20833 7.54995 9.03333 7.54995 10C7.54995 10.6333 7.70412 11.2208 8.01245 11.7625C8.32078 12.3042 8.74162 12.725 9.27495 13.025ZM16 18L19 15L16 12L15.3 12.7L17.1 14.5H13V15.5H17.075L15.3 17.3L16 18ZM16 20C14.6166 20 13.4375 19.5125 12.4625 18.5375C11.4875 17.5625 11 16.3833 11 15C11 13.6167 11.4875 12.4375 12.4625 11.4625C13.4375 10.4875 14.6166 10 16 10C17.3833 10 18.5625 10.4875 19.5375 11.4625C20.5125 12.4375 21 13.6167 21 15C21 16.3833 20.5125 17.5625 19.5375 18.5375C18.5625 19.5125 17.3833 20 16 20Z" fill="#71839B"/>
</svg>
