<svg width="14" height="18" viewBox="0 0 14 18" fill="none" xmlns="http://www.w3.org/2000/svg">
<path d="M11.9999 9.98366V7.33366C11.9987 6.15293 11.5797 5.01072 10.8171 4.1093C10.0545 3.20789 8.99747 2.60545 7.83325 2.40866V1.50033C7.83325 1.27931 7.74545 1.06735 7.58917 0.91107C7.43289 0.75479 7.22093 0.666992 6.99992 0.666992C6.7789 0.666992 6.56694 0.75479 6.41066 0.91107C6.25438 1.06735 6.16659 1.27931 6.16659 1.50033V2.40866C5.00237 2.60545 3.94536 3.20789 3.18274 4.1093C2.42012 5.01072 2.00112 6.15293 1.99992 7.33366V9.98366C1.51363 10.1556 1.09242 10.4737 0.794034 10.8944C0.495651 11.3152 0.334702 11.8179 0.333252 12.3337V14.0003C0.333252 14.2213 0.421049 14.4333 0.57733 14.5896C0.73361 14.7459 0.945572 14.8337 1.16659 14.8337H3.78325C3.97515 15.5398 4.39409 16.1632 4.97542 16.6076C5.55674 17.052 6.26817 17.2928 6.99992 17.2928C7.73167 17.2928 8.44309 17.052 9.02442 16.6076C9.60575 16.1632 10.0247 15.5398 10.2166 14.8337H12.8333C13.0543 14.8337 13.2662 14.7459 13.4225 14.5896C13.5788 14.4333 13.6666 14.2213 13.6666 14.0003V12.3337C13.6651 11.8179 13.5042 11.3152 13.2058 10.8944C12.9074 10.4737 12.4862 10.1556 11.9999 9.98366V9.98366ZM3.66659 7.33366C3.66659 6.4496 4.01777 5.60176 4.6429 4.97664C5.26802 4.35151 6.11586 4.00033 6.99992 4.00033C7.88397 4.00033 8.73182 4.35151 9.35694 4.97664C9.98206 5.60176 10.3333 6.4496 10.3333 7.33366V9.83366H3.66659V7.33366ZM6.99992 15.667C6.70906 15.6652 6.42373 15.5874 6.17228 15.4412C5.92083 15.295 5.71201 15.0856 5.56658 14.8337H8.43325C8.28783 15.0856 8.07901 15.295 7.82756 15.4412C7.57611 15.5874 7.29077 15.6652 6.99992 15.667ZM11.9999 13.167H1.99992V12.3337C1.99992 12.1126 2.08772 11.9007 2.244 11.7444C2.40028 11.5881 2.61224 11.5003 2.83325 11.5003H11.1666C11.3876 11.5003 11.5996 11.5881 11.7558 11.7444C11.9121 11.9007 11.9999 12.1126 11.9999 12.3337V13.167Z" fill="#71839B"/>
</svg>
